<mxfile host="app.diagrams.net" modified="2020-03-25T14:44:28.865Z" agent="Mozilla/5.0 (Windows NT 10.0; Win64; x64) AppleWebKit/537.36 (KHTML, like Gecko) Chrome/80.0.3987.132 Safari/537.36" etag="jGUvPMJkwL6MSgZkMb7c" version="12.8.8" type="github">
  <diagram id="UdFtWPBl2Bc196_fcSpV" name="Page-1">
    <mxGraphModel dx="2249" dy="1892" grid="1" gridSize="10" guides="1" tooltips="1" connect="1" arrows="1" fold="1" page="1" pageScale="1" pageWidth="827" pageHeight="1169" math="0" shadow="0">
      <root>
        <mxCell id="0" />
        <mxCell id="1" parent="0" />
        <mxCell id="evfxLTh9Jp9Zyxjdrr7t-2" value="&lt;font style=&quot;font-size: 18px&quot;&gt;有趣的汉字&lt;/font&gt;" style="strokeWidth=2;html=1;shape=mxgraph.flowchart.terminator;whiteSpace=wrap;" parent="1" vertex="1">
          <mxGeometry x="-130" y="244" width="100" height="60" as="geometry" />
        </mxCell>
        <mxCell id="evfxLTh9Jp9Zyxjdrr7t-5" value="&lt;span style=&quot;white-space: normal&quot;&gt;&lt;font style=&quot;font-size: 18px&quot;&gt;有趣的汉字二&lt;/font&gt;&lt;/span&gt;" style="rounded=1;whiteSpace=wrap;html=1;absoluteArcSize=1;arcSize=14;strokeWidth=2;" parent="1" vertex="1">
          <mxGeometry x="80" y="244" width="160" height="60" as="geometry" />
        </mxCell>
        <mxCell id="evfxLTh9Jp9Zyxjdrr7t-6" value="&lt;font style=&quot;font-size: 18px&quot;&gt;有趣的汉字一&lt;/font&gt;" style="rounded=1;whiteSpace=wrap;html=1;absoluteArcSize=1;arcSize=14;strokeWidth=2;" parent="1" vertex="1">
          <mxGeometry x="70" y="-15" width="160" height="60" as="geometry" />
        </mxCell>
        <mxCell id="evfxLTh9Jp9Zyxjdrr7t-9" value="&lt;font style=&quot;font-size: 18px&quot;&gt;有趣的汉字三&lt;/font&gt;" style="rounded=1;whiteSpace=wrap;html=1;absoluteArcSize=1;arcSize=14;strokeWidth=2;" parent="1" vertex="1">
          <mxGeometry x="80" y="460" width="160" height="60" as="geometry" />
        </mxCell>
        <mxCell id="evfxLTh9Jp9Zyxjdrr7t-10" value="&lt;font style=&quot;font-size: 18px&quot;&gt;现代&lt;/font&gt;" style="rounded=1;whiteSpace=wrap;html=1;absoluteArcSize=1;arcSize=14;strokeWidth=2;" parent="1" vertex="1">
          <mxGeometry x="610" y="-110" width="80" height="30" as="geometry" />
        </mxCell>
        <mxCell id="evfxLTh9Jp9Zyxjdrr7t-11" value="&lt;font style=&quot;font-size: 18px&quot;&gt;古代&lt;/font&gt;" style="rounded=1;whiteSpace=wrap;html=1;absoluteArcSize=1;arcSize=14;strokeWidth=2;" parent="1" vertex="1">
          <mxGeometry x="610" y="-15" width="80" height="30" as="geometry" />
        </mxCell>
        <mxCell id="evfxLTh9Jp9Zyxjdrr7t-12" value="从记录（信息的交流跟传递）开始" style="rounded=1;whiteSpace=wrap;html=1;absoluteArcSize=1;arcSize=14;strokeWidth=2;" parent="1" vertex="1">
          <mxGeometry x="330" y="-50" width="190" height="30" as="geometry" />
        </mxCell>
        <mxCell id="evfxLTh9Jp9Zyxjdrr7t-13" value="" style="edgeStyle=elbowEdgeStyle;elbow=horizontal;endArrow=classic;html=1;entryX=0;entryY=0.5;entryDx=0;entryDy=0;exitX=1;exitY=0.5;exitDx=0;exitDy=0;" parent="1" edge="1" target="evfxLTh9Jp9Zyxjdrr7t-16" source="evfxLTh9Jp9Zyxjdrr7t-11">
          <mxGeometry width="50" height="50" relative="1" as="geometry">
            <mxPoint x="645" y="100" as="sourcePoint" />
            <mxPoint x="695" y="50" as="targetPoint" />
            <Array as="points">
              <mxPoint x="750" y="-10" />
              <mxPoint x="740" y="-20" />
            </Array>
          </mxGeometry>
        </mxCell>
        <mxCell id="evfxLTh9Jp9Zyxjdrr7t-15" value="拍摄（电子辅助设备）" style="rounded=1;whiteSpace=wrap;html=1;absoluteArcSize=1;arcSize=14;strokeWidth=2;" parent="1" vertex="1">
          <mxGeometry x="780" y="-95" width="130" height="30" as="geometry" />
        </mxCell>
        <mxCell id="evfxLTh9Jp9Zyxjdrr7t-16" value="打绳结+贝壳" style="rounded=1;whiteSpace=wrap;html=1;absoluteArcSize=1;arcSize=14;strokeWidth=2;" parent="1" vertex="1">
          <mxGeometry x="780" y="-45" width="130" height="30" as="geometry" />
        </mxCell>
        <mxCell id="evfxLTh9Jp9Zyxjdrr7t-18" value="从脚印判断属于什么动物" style="rounded=1;whiteSpace=wrap;html=1;absoluteArcSize=1;arcSize=14;strokeWidth=2;" parent="1" vertex="1">
          <mxGeometry x="760" y="5" width="150" height="30" as="geometry" />
        </mxCell>
        <mxCell id="PoLhZCgT39Hz8Oy34b9h-2" style="edgeStyle=orthogonalEdgeStyle;rounded=0;orthogonalLoop=1;jettySize=auto;html=1;exitX=0.5;exitY=1;exitDx=0;exitDy=0;" edge="1" parent="1" source="evfxLTh9Jp9Zyxjdrr7t-20" target="evfxLTh9Jp9Zyxjdrr7t-22">
          <mxGeometry relative="1" as="geometry" />
        </mxCell>
        <mxCell id="evfxLTh9Jp9Zyxjdrr7t-20" value="观察各类物体形状" style="rounded=1;whiteSpace=wrap;html=1;absoluteArcSize=1;arcSize=14;strokeWidth=2;" parent="1" vertex="1">
          <mxGeometry x="970" y="-50" width="150" height="30" as="geometry" />
        </mxCell>
        <mxCell id="evfxLTh9Jp9Zyxjdrr7t-17" value="纸笔记录" style="rounded=1;whiteSpace=wrap;html=1;absoluteArcSize=1;arcSize=14;strokeWidth=2;" parent="1" vertex="1">
          <mxGeometry x="780" y="-150" width="120" height="30" as="geometry" />
        </mxCell>
        <mxCell id="PoLhZCgT39Hz8Oy34b9h-13" style="edgeStyle=orthogonalEdgeStyle;rounded=0;orthogonalLoop=1;jettySize=auto;html=1;exitX=0.5;exitY=1;exitDx=0;exitDy=0;entryX=0.5;entryY=0;entryDx=0;entryDy=0;" edge="1" parent="1" source="evfxLTh9Jp9Zyxjdrr7t-22" target="PoLhZCgT39Hz8Oy34b9h-10">
          <mxGeometry relative="1" as="geometry" />
        </mxCell>
        <mxCell id="evfxLTh9Jp9Zyxjdrr7t-22" value="创造符号" style="rounded=1;whiteSpace=wrap;html=1;absoluteArcSize=1;arcSize=14;strokeWidth=2;" parent="1" vertex="1">
          <mxGeometry x="970" width="150" height="30" as="geometry" />
        </mxCell>
        <mxCell id="PoLhZCgT39Hz8Oy34b9h-10" value="&lt;font style=&quot;font-size: 18px&quot;&gt;象形字&lt;/font&gt;&lt;font style=&quot;font-size: 10px&quot;&gt;（人、口、天）&lt;/font&gt;" style="rounded=1;whiteSpace=wrap;html=1;absoluteArcSize=1;arcSize=14;strokeWidth=2;" vertex="1" parent="1">
          <mxGeometry x="970" y="50" width="150" height="30" as="geometry" />
        </mxCell>
        <mxCell id="PoLhZCgT39Hz8Oy34b9h-23" value="" style="edgeStyle=elbowEdgeStyle;elbow=horizontal;endArrow=classic;html=1;entryX=0;entryY=0.5;entryDx=0;entryDy=0;exitX=1;exitY=0.5;exitDx=0;exitDy=0;" edge="1" parent="1" source="evfxLTh9Jp9Zyxjdrr7t-11" target="evfxLTh9Jp9Zyxjdrr7t-18">
          <mxGeometry width="50" height="50" relative="1" as="geometry">
            <mxPoint x="740" y="10" as="sourcePoint" />
            <mxPoint x="760" y="-20" as="targetPoint" />
            <Array as="points">
              <mxPoint x="740" y="10" />
            </Array>
          </mxGeometry>
        </mxCell>
        <mxCell id="PoLhZCgT39Hz8Oy34b9h-24" value="" style="edgeStyle=elbowEdgeStyle;elbow=horizontal;endArrow=classic;html=1;entryX=0;entryY=0.5;entryDx=0;entryDy=0;exitX=1;exitY=0.5;exitDx=0;exitDy=0;" edge="1" parent="1" source="evfxLTh9Jp9Zyxjdrr7t-18" target="evfxLTh9Jp9Zyxjdrr7t-20">
          <mxGeometry width="50" height="50" relative="1" as="geometry">
            <mxPoint x="750" y="20" as="sourcePoint" />
            <mxPoint x="770" y="-10" as="targetPoint" />
            <Array as="points">
              <mxPoint x="950" y="-10" />
              <mxPoint x="930" y="-50" />
            </Array>
          </mxGeometry>
        </mxCell>
        <mxCell id="PoLhZCgT39Hz8Oy34b9h-26" value="" style="edgeStyle=elbowEdgeStyle;elbow=horizontal;endArrow=classic;html=1;entryX=0;entryY=0.5;entryDx=0;entryDy=0;exitX=1;exitY=0.5;exitDx=0;exitDy=0;" edge="1" parent="1" source="evfxLTh9Jp9Zyxjdrr7t-18" target="PoLhZCgT39Hz8Oy34b9h-10">
          <mxGeometry width="50" height="50" relative="1" as="geometry">
            <mxPoint x="920" y="-20" as="sourcePoint" />
            <mxPoint x="980" y="-55" as="targetPoint" />
            <Array as="points">
              <mxPoint x="950" y="40" />
              <mxPoint x="930" y="40" />
            </Array>
          </mxGeometry>
        </mxCell>
        <mxCell id="PoLhZCgT39Hz8Oy34b9h-27" value="" style="edgeStyle=elbowEdgeStyle;elbow=horizontal;endArrow=classic;html=1;entryX=0;entryY=0.5;entryDx=0;entryDy=0;exitX=1;exitY=0.5;exitDx=0;exitDy=0;" edge="1" parent="1" source="evfxLTh9Jp9Zyxjdrr7t-12" target="evfxLTh9Jp9Zyxjdrr7t-10">
          <mxGeometry width="50" height="50" relative="1" as="geometry">
            <mxPoint x="930" y="-10" as="sourcePoint" />
            <mxPoint x="990" y="-45" as="targetPoint" />
            <Array as="points">
              <mxPoint x="590" y="-60" />
            </Array>
          </mxGeometry>
        </mxCell>
        <mxCell id="PoLhZCgT39Hz8Oy34b9h-31" value="记录方式" style="text;html=1;align=center;verticalAlign=middle;resizable=0;points=[];labelBackgroundColor=#ffffff;" vertex="1" connectable="0" parent="PoLhZCgT39Hz8Oy34b9h-27">
          <mxGeometry x="-0.7467" y="-1" relative="1" as="geometry">
            <mxPoint x="14" y="-10" as="offset" />
          </mxGeometry>
        </mxCell>
        <mxCell id="PoLhZCgT39Hz8Oy34b9h-28" value="" style="edgeStyle=elbowEdgeStyle;elbow=horizontal;endArrow=classic;html=1;entryX=0;entryY=0.5;entryDx=0;entryDy=0;" edge="1" parent="1" target="evfxLTh9Jp9Zyxjdrr7t-11">
          <mxGeometry width="50" height="50" relative="1" as="geometry">
            <mxPoint x="570" y="-35" as="sourcePoint" />
            <mxPoint x="620" y="-85" as="targetPoint" />
            <Array as="points">
              <mxPoint x="590" y="-50" />
            </Array>
          </mxGeometry>
        </mxCell>
        <mxCell id="PoLhZCgT39Hz8Oy34b9h-29" value="" style="edgeStyle=elbowEdgeStyle;elbow=horizontal;endArrow=classic;html=1;entryX=0;entryY=0.5;entryDx=0;entryDy=0;exitX=1;exitY=0.5;exitDx=0;exitDy=0;" edge="1" parent="1" source="evfxLTh9Jp9Zyxjdrr7t-10" target="evfxLTh9Jp9Zyxjdrr7t-17">
          <mxGeometry width="50" height="50" relative="1" as="geometry">
            <mxPoint x="590" y="-15" as="sourcePoint" />
            <mxPoint x="630" y="-75" as="targetPoint" />
            <Array as="points">
              <mxPoint x="750" y="-110" />
            </Array>
          </mxGeometry>
        </mxCell>
        <mxCell id="PoLhZCgT39Hz8Oy34b9h-30" value="" style="edgeStyle=elbowEdgeStyle;elbow=horizontal;endArrow=classic;html=1;entryX=0;entryY=0.5;entryDx=0;entryDy=0;exitX=1;exitY=0.5;exitDx=0;exitDy=0;" edge="1" parent="1" source="evfxLTh9Jp9Zyxjdrr7t-10" target="evfxLTh9Jp9Zyxjdrr7t-15">
          <mxGeometry width="50" height="50" relative="1" as="geometry">
            <mxPoint x="740" y="-85" as="sourcePoint" />
            <mxPoint x="790" y="-125" as="targetPoint" />
            <Array as="points">
              <mxPoint x="750" y="-90" />
            </Array>
          </mxGeometry>
        </mxCell>
        <mxCell id="PoLhZCgT39Hz8Oy34b9h-32" value="" style="edgeStyle=elbowEdgeStyle;elbow=horizontal;endArrow=classic;html=1;entryX=0;entryY=0.5;entryDx=0;entryDy=0;exitX=1;exitY=0.5;exitDx=0;exitDy=0;" edge="1" parent="1" source="evfxLTh9Jp9Zyxjdrr7t-6" target="evfxLTh9Jp9Zyxjdrr7t-12">
          <mxGeometry width="50" height="50" relative="1" as="geometry">
            <mxPoint x="530" y="-25" as="sourcePoint" />
            <mxPoint x="620" y="-85" as="targetPoint" />
            <Array as="points">
              <mxPoint x="310" y="-10" />
              <mxPoint x="300" y="-10" />
            </Array>
          </mxGeometry>
        </mxCell>
        <mxCell id="PoLhZCgT39Hz8Oy34b9h-33" value="汉字的产生" style="text;html=1;align=center;verticalAlign=middle;resizable=0;points=[];labelBackgroundColor=#ffffff;" vertex="1" connectable="0" parent="PoLhZCgT39Hz8Oy34b9h-32">
          <mxGeometry x="-0.7467" y="-1" relative="1" as="geometry">
            <mxPoint x="14" y="-10" as="offset" />
          </mxGeometry>
        </mxCell>
        <mxCell id="PoLhZCgT39Hz8Oy34b9h-34" value="叙述事件、描画人、物" style="rounded=1;whiteSpace=wrap;html=1;absoluteArcSize=1;arcSize=14;strokeWidth=2;" vertex="1" parent="1">
          <mxGeometry x="827" y="107" width="130" height="30" as="geometry" />
        </mxCell>
        <mxCell id="PoLhZCgT39Hz8Oy34b9h-35" value="生活需要" style="text;html=1;align=center;verticalAlign=middle;resizable=0;points=[];autosize=1;" vertex="1" parent="1">
          <mxGeometry x="690" y="-115" width="60" height="20" as="geometry" />
        </mxCell>
        <mxCell id="PoLhZCgT39Hz8Oy34b9h-37" value="生活需要" style="text;html=1;align=center;verticalAlign=middle;resizable=0;points=[];autosize=1;" vertex="1" parent="1">
          <mxGeometry x="686" y="-18" width="60" height="20" as="geometry" />
        </mxCell>
        <mxCell id="PoLhZCgT39Hz8Oy34b9h-38" value="计数" style="text;html=1;align=center;verticalAlign=middle;resizable=0;points=[];autosize=1;" vertex="1" parent="1">
          <mxGeometry x="740" y="-50" width="40" height="20" as="geometry" />
        </mxCell>
        <mxCell id="PoLhZCgT39Hz8Oy34b9h-39" value="计形" style="text;html=1;align=center;verticalAlign=middle;resizable=0;points=[];autosize=1;" vertex="1" parent="1">
          <mxGeometry x="908" y="3" width="40" height="20" as="geometry" />
        </mxCell>
        <mxCell id="PoLhZCgT39Hz8Oy34b9h-42" value="" style="edgeStyle=elbowEdgeStyle;elbow=horizontal;endArrow=classic;html=1;entryX=1;entryY=0.5;entryDx=0;entryDy=0;exitX=0.5;exitY=1;exitDx=0;exitDy=0;" edge="1" parent="1" source="PoLhZCgT39Hz8Oy34b9h-10" target="PoLhZCgT39Hz8Oy34b9h-34">
          <mxGeometry width="50" height="50" relative="1" as="geometry">
            <mxPoint x="250" y="35" as="sourcePoint" />
            <mxPoint x="350" y="-15" as="targetPoint" />
            <Array as="points">
              <mxPoint x="1045" y="100" />
              <mxPoint x="810" y="95" />
              <mxPoint x="320" y="10" />
            </Array>
          </mxGeometry>
        </mxCell>
        <mxCell id="PoLhZCgT39Hz8Oy34b9h-44" value="从单一到组合" style="text;html=1;align=center;verticalAlign=middle;resizable=0;points=[];autosize=1;" vertex="1" parent="1">
          <mxGeometry x="957" y="100" width="90" height="20" as="geometry" />
        </mxCell>
        <mxCell id="PoLhZCgT39Hz8Oy34b9h-46" value="&lt;font style=&quot;font-size: 18px&quot;&gt;会意字&lt;/font&gt;&lt;font style=&quot;font-size: 10px&quot;&gt;：&lt;/font&gt;&lt;font style=&quot;font-size: 10px&quot;&gt;独体字的组合，用两者的意来综合表示一个新的意义。&lt;/font&gt;&lt;font style=&quot;font-size: 10px&quot;&gt;（信、维、佃...）&lt;br&gt;&lt;/font&gt;" style="rounded=1;whiteSpace=wrap;html=1;absoluteArcSize=1;arcSize=14;strokeWidth=2;" vertex="1" parent="1">
          <mxGeometry x="300" y="224" width="160" height="100" as="geometry" />
        </mxCell>
        <mxCell id="PoLhZCgT39Hz8Oy34b9h-47" value="&lt;font style=&quot;font-size: 18px&quot;&gt;形声字&lt;/font&gt;&lt;font style=&quot;font-size: 10px&quot;&gt;：&lt;/font&gt;&lt;font style=&quot;font-size: 10px&quot;&gt;形旁表意，声旁表音&lt;/font&gt;（例如：贷、诚、屿...）但是由于汉字的不断演进，有很多今天看来声旁并不一定表音了（例如：横、屠、）" style="rounded=1;whiteSpace=wrap;html=1;absoluteArcSize=1;arcSize=14;strokeWidth=2;" vertex="1" parent="1">
          <mxGeometry x="300" y="130" width="160" height="90" as="geometry" />
        </mxCell>
        <mxCell id="PoLhZCgT39Hz8Oy34b9h-48" value="&lt;font style=&quot;font-size: 18px&quot;&gt;指事字&lt;/font&gt;&lt;font&gt;&lt;font style=&quot;font-size: 10px&quot;&gt;：&lt;/font&gt;&lt;span style=&quot;font-size: 10px&quot;&gt;象形字的基础上增加或减少笔画&lt;/span&gt;&lt;br&gt;&lt;/font&gt;&lt;font style=&quot;font-size: 10px&quot;&gt;（上、下、本...）&lt;/font&gt;" style="rounded=1;whiteSpace=wrap;html=1;absoluteArcSize=1;arcSize=14;strokeWidth=2;" vertex="1" parent="1">
          <mxGeometry x="300" y="328" width="160" height="100" as="geometry" />
        </mxCell>
        <mxCell id="PoLhZCgT39Hz8Oy34b9h-50" value="" style="edgeStyle=elbowEdgeStyle;elbow=horizontal;endArrow=classic;html=1;entryX=0.55;entryY=-0.017;entryDx=0;entryDy=0;exitX=0;exitY=0.5;exitDx=0;exitDy=0;entryPerimeter=0;" edge="1" parent="1" source="PoLhZCgT39Hz8Oy34b9h-34" target="evfxLTh9Jp9Zyxjdrr7t-5">
          <mxGeometry width="50" height="50" relative="1" as="geometry">
            <mxPoint x="530" y="-25" as="sourcePoint" />
            <mxPoint x="620" y="-85" as="targetPoint" />
            <Array as="points">
              <mxPoint x="168" y="122" />
              <mxPoint x="760" y="110" />
              <mxPoint x="168" y="100" />
            </Array>
          </mxGeometry>
        </mxCell>
        <mxCell id="PoLhZCgT39Hz8Oy34b9h-57" value="" style="edgeStyle=elbowEdgeStyle;elbow=horizontal;endArrow=classic;html=1;entryX=0;entryY=0.5;entryDx=0;entryDy=0;exitX=1;exitY=0.5;exitDx=0;exitDy=0;" edge="1" parent="1" source="evfxLTh9Jp9Zyxjdrr7t-5" target="PoLhZCgT39Hz8Oy34b9h-47">
          <mxGeometry width="50" height="50" relative="1" as="geometry">
            <mxPoint x="650" y="122" as="sourcePoint" />
            <mxPoint x="190" y="285" as="targetPoint" />
            <Array as="points" />
          </mxGeometry>
        </mxCell>
        <mxCell id="PoLhZCgT39Hz8Oy34b9h-58" value="" style="edgeStyle=elbowEdgeStyle;elbow=horizontal;endArrow=classic;html=1;entryX=0;entryY=0.5;entryDx=0;entryDy=0;exitX=1;exitY=0.5;exitDx=0;exitDy=0;" edge="1" parent="1" source="evfxLTh9Jp9Zyxjdrr7t-5" target="PoLhZCgT39Hz8Oy34b9h-48">
          <mxGeometry width="50" height="50" relative="1" as="geometry">
            <mxPoint x="250" y="295" as="sourcePoint" />
            <mxPoint x="344" y="265" as="targetPoint" />
            <Array as="points" />
          </mxGeometry>
        </mxCell>
        <mxCell id="PoLhZCgT39Hz8Oy34b9h-59" value="" style="edgeStyle=elbowEdgeStyle;elbow=horizontal;endArrow=classic;html=1;exitX=1;exitY=0.5;exitDx=0;exitDy=0;entryX=0;entryY=0.5;entryDx=0;entryDy=0;" edge="1" parent="1" source="evfxLTh9Jp9Zyxjdrr7t-5" target="PoLhZCgT39Hz8Oy34b9h-46">
          <mxGeometry width="50" height="50" relative="1" as="geometry">
            <mxPoint x="260" y="305" as="sourcePoint" />
            <mxPoint x="300" y="285" as="targetPoint" />
            <Array as="points" />
          </mxGeometry>
        </mxCell>
        <mxCell id="PoLhZCgT39Hz8Oy34b9h-60" value="" style="edgeStyle=elbowEdgeStyle;elbow=horizontal;endArrow=classic;html=1;entryX=0;entryY=0.5;entryDx=0;entryDy=0;exitX=1;exitY=0.5;exitDx=0;exitDy=0;exitPerimeter=0;" edge="1" parent="1" source="evfxLTh9Jp9Zyxjdrr7t-2" target="evfxLTh9Jp9Zyxjdrr7t-5">
          <mxGeometry width="50" height="50" relative="1" as="geometry">
            <mxPoint x="270" y="315" as="sourcePoint" />
            <mxPoint x="364" y="285" as="targetPoint" />
            <Array as="points" />
          </mxGeometry>
        </mxCell>
        <mxCell id="PoLhZCgT39Hz8Oy34b9h-61" value="" style="edgeStyle=elbowEdgeStyle;elbow=horizontal;endArrow=classic;html=1;entryX=0;entryY=0.5;entryDx=0;entryDy=0;exitX=1;exitY=0.5;exitDx=0;exitDy=0;exitPerimeter=0;" edge="1" parent="1" source="evfxLTh9Jp9Zyxjdrr7t-2" target="evfxLTh9Jp9Zyxjdrr7t-6">
          <mxGeometry width="50" height="50" relative="1" as="geometry">
            <mxPoint x="280" y="325" as="sourcePoint" />
            <mxPoint x="374" y="295" as="targetPoint" />
            <Array as="points" />
          </mxGeometry>
        </mxCell>
        <mxCell id="PoLhZCgT39Hz8Oy34b9h-62" value="" style="edgeStyle=elbowEdgeStyle;elbow=horizontal;endArrow=classic;html=1;entryX=0;entryY=0.5;entryDx=0;entryDy=0;exitX=1;exitY=0.5;exitDx=0;exitDy=0;exitPerimeter=0;" edge="1" parent="1" source="evfxLTh9Jp9Zyxjdrr7t-2" target="evfxLTh9Jp9Zyxjdrr7t-9">
          <mxGeometry width="50" height="50" relative="1" as="geometry">
            <mxPoint x="-20" y="295" as="sourcePoint" />
            <mxPoint x="80" y="25" as="targetPoint" />
            <Array as="points">
              <mxPoint x="20" y="330" />
            </Array>
          </mxGeometry>
        </mxCell>
        <mxCell id="PoLhZCgT39Hz8Oy34b9h-64" value="" style="line;strokeWidth=2;html=1;" vertex="1" parent="1">
          <mxGeometry x="160" y="860" width="560" height="10" as="geometry" />
        </mxCell>
        <mxCell id="PoLhZCgT39Hz8Oy34b9h-65" value="" style="ellipse;shape=doubleEllipse;whiteSpace=wrap;html=1;" vertex="1" parent="1">
          <mxGeometry x="210" y="850" width="30" height="15" as="geometry" />
        </mxCell>
        <mxCell id="PoLhZCgT39Hz8Oy34b9h-66" value="" style="ellipse;shape=doubleEllipse;whiteSpace=wrap;html=1;" vertex="1" parent="1">
          <mxGeometry x="300" y="850" width="50" height="15" as="geometry" />
        </mxCell>
        <mxCell id="PoLhZCgT39Hz8Oy34b9h-67" value="" style="ellipse;shape=doubleEllipse;whiteSpace=wrap;html=1;aspect=fixed;fillColor=#660000;strokeColor=#6c8ebf;" vertex="1" parent="1">
          <mxGeometry x="215" y="842" width="20" height="20" as="geometry" />
        </mxCell>
        <mxCell id="PoLhZCgT39Hz8Oy34b9h-69" value="&lt;font style=&quot;font-size: 18px&quot;&gt;A&lt;/font&gt;" style="text;html=1;align=center;verticalAlign=middle;resizable=0;points=[];autosize=1;" vertex="1" parent="1">
          <mxGeometry x="210" y="862" width="30" height="20" as="geometry" />
        </mxCell>
        <mxCell id="PoLhZCgT39Hz8Oy34b9h-70" value="&lt;font style=&quot;font-size: 18px&quot;&gt;B&lt;/font&gt;" style="text;html=1;align=center;verticalAlign=middle;resizable=0;points=[];autosize=1;" vertex="1" parent="1">
          <mxGeometry x="310" y="865" width="30" height="20" as="geometry" />
        </mxCell>
        <mxCell id="PoLhZCgT39Hz8Oy34b9h-74" value="&lt;font style=&quot;font-size: 18px&quot;&gt;&lt;b&gt;木板&lt;/b&gt;&lt;/font&gt;" style="text;html=1;align=center;verticalAlign=middle;resizable=0;points=[];autosize=1;" vertex="1" parent="1">
          <mxGeometry x="450" y="855" width="50" height="20" as="geometry" />
        </mxCell>
        <mxCell id="PoLhZCgT39Hz8Oy34b9h-75" value="&lt;b&gt;&lt;font style=&quot;font-size: 18px&quot;&gt;支撑点&lt;/font&gt;&lt;/b&gt;" style="text;html=1;align=center;verticalAlign=middle;resizable=0;points=[];autosize=1;" vertex="1" parent="1">
          <mxGeometry x="690" y="870" width="70" height="20" as="geometry" />
        </mxCell>
        <mxCell id="PoLhZCgT39Hz8Oy34b9h-76" value="&lt;b&gt;&lt;font style=&quot;font-size: 18px&quot;&gt;如上图：&lt;/font&gt;木板上有A、B两个小碗，小球在A碗里面，当木板停靠支撑点抬起另外一端后，自然放下，小球是否会精准的&lt;font style=&quot;font-size: 18px&quot;&gt;跳&lt;/font&gt;入B碗内。&lt;br&gt;&lt;br&gt;&lt;font style=&quot;font-size: 18px&quot;&gt;问题是：&lt;/font&gt;你是否相信这是一个真实事件，也就是说小球会精准的从Ａ跳入Ｂ中么？（抬到什么高度才会精准的跳入Ｂ碗中呢？&lt;/b&gt;&lt;b&gt;原理又是什么？&lt;/b&gt;&lt;b&gt;）&lt;/b&gt;" style="text;html=1;align=center;verticalAlign=middle;resizable=0;points=[];autosize=1;" vertex="1" parent="1">
          <mxGeometry x="14" y="920" width="800" height="50" as="geometry" />
        </mxCell>
        <mxCell id="PoLhZCgT39Hz8Oy34b9h-77" value="" style="html=1;shadow=0;dashed=1;align=center;verticalAlign=middle;shape=mxgraph.arrows2.jumpInArrow;dy=8.46;dx=29.66;arrowHead=55;fillColor=#660000;rotation=-55;" vertex="1" parent="1">
          <mxGeometry x="80" y="710" width="165.55" height="110" as="geometry" />
        </mxCell>
        <mxCell id="PoLhZCgT39Hz8Oy34b9h-97" value="" style="group;rotation=20;" vertex="1" connectable="0" parent="1">
          <mxGeometry x="185" y="748" width="560" height="43" as="geometry" />
        </mxCell>
        <mxCell id="PoLhZCgT39Hz8Oy34b9h-88" value="" style="line;strokeWidth=2;html=1;dashed=1;dashPattern=1 4;rotation=20;" vertex="1" parent="PoLhZCgT39Hz8Oy34b9h-97">
          <mxGeometry x="-1" y="18" width="560" height="10" as="geometry" />
        </mxCell>
        <mxCell id="PoLhZCgT39Hz8Oy34b9h-89" value="" style="ellipse;shape=doubleEllipse;whiteSpace=wrap;html=1;rotation=20;" vertex="1" parent="PoLhZCgT39Hz8Oy34b9h-97">
          <mxGeometry x="65" y="-65" width="30" height="15" as="geometry" />
        </mxCell>
        <mxCell id="PoLhZCgT39Hz8Oy34b9h-90" value="" style="ellipse;shape=doubleEllipse;whiteSpace=wrap;html=1;rotation=20;" vertex="1" parent="PoLhZCgT39Hz8Oy34b9h-97">
          <mxGeometry x="149" y="-31" width="50" height="15" as="geometry" />
        </mxCell>
        <mxCell id="PoLhZCgT39Hz8Oy34b9h-91" value="" style="ellipse;shape=doubleEllipse;whiteSpace=wrap;html=1;aspect=fixed;fillColor=#660000;strokeColor=#6c8ebf;rotation=20;" vertex="1" parent="PoLhZCgT39Hz8Oy34b9h-97">
          <mxGeometry x="72" y="-73" width="20" height="20" as="geometry" />
        </mxCell>
        <mxCell id="PoLhZCgT39Hz8Oy34b9h-92" value="&lt;font style=&quot;font-size: 18px&quot;&gt;A&lt;/font&gt;" style="text;html=1;align=center;verticalAlign=middle;resizable=0;points=[];autosize=1;rotation=20;" vertex="1" parent="PoLhZCgT39Hz8Oy34b9h-97">
          <mxGeometry x="60" y="-54" width="30" height="20" as="geometry" />
        </mxCell>
        <mxCell id="PoLhZCgT39Hz8Oy34b9h-93" value="&lt;font style=&quot;font-size: 18px&quot;&gt;B&lt;/font&gt;" style="text;html=1;align=center;verticalAlign=middle;resizable=0;points=[];autosize=1;rotation=20;" vertex="1" parent="PoLhZCgT39Hz8Oy34b9h-97">
          <mxGeometry x="153" y="-17" width="30" height="20" as="geometry" />
        </mxCell>
        <mxCell id="PoLhZCgT39Hz8Oy34b9h-100" value="" style="rounded=0;comic=1;strokeWidth=2;endArrow=blockThin;html=1;fontFamily=Comic Sans MS;fontStyle=1;exitX=0.5;exitY=0;exitDx=0;exitDy=0;dashed=1;dashPattern=1 4;" edge="1" parent="1" source="PoLhZCgT39Hz8Oy34b9h-67">
          <mxGeometry width="50" height="50" relative="1" as="geometry">
            <mxPoint x="230" y="850" as="sourcePoint" />
            <mxPoint x="330" y="850" as="targetPoint" />
            <Array as="points">
              <mxPoint x="240" y="820" />
              <mxPoint x="260" y="800" />
              <mxPoint x="280" y="800" />
              <mxPoint x="300" y="810" />
              <mxPoint x="320" y="830" />
            </Array>
          </mxGeometry>
        </mxCell>
        <mxCell id="PoLhZCgT39Hz8Oy34b9h-101" style="edgeStyle=orthogonalEdgeStyle;rounded=0;orthogonalLoop=1;jettySize=auto;html=1;exitX=0.5;exitY=0;exitDx=0;exitDy=0;dashed=1;startArrow=blockThin;startFill=1;strokeWidth=2;" edge="1" parent="1">
          <mxGeometry relative="1" as="geometry">
            <mxPoint x="322" y="589" as="targetPoint" />
            <mxPoint x="322" y="859" as="sourcePoint" />
            <Array as="points">
              <mxPoint x="322" y="659" />
              <mxPoint x="322" y="659" />
            </Array>
          </mxGeometry>
        </mxCell>
        <mxCell id="PoLhZCgT39Hz8Oy34b9h-131" value="" style="endArrow=none;dashed=1;html=1;strokeWidth=2;entryX=0.978;entryY=0.432;entryDx=0;entryDy=0;entryPerimeter=0;" edge="1" parent="1" target="PoLhZCgT39Hz8Oy34b9h-88">
          <mxGeometry width="50" height="50" relative="1" as="geometry">
            <mxPoint x="250" y="540" as="sourcePoint" />
            <mxPoint x="250" y="560" as="targetPoint" />
          </mxGeometry>
        </mxCell>
        <mxCell id="PoLhZCgT39Hz8Oy34b9h-132" value="" style="ellipse;shape=doubleEllipse;whiteSpace=wrap;html=1;rotation=20;" vertex="1" parent="1">
          <mxGeometry x="305" y="573" width="30" height="15" as="geometry" />
        </mxCell>
        <mxCell id="PoLhZCgT39Hz8Oy34b9h-133" value="" style="ellipse;shape=doubleEllipse;whiteSpace=wrap;html=1;aspect=fixed;fillColor=#660000;strokeColor=#6c8ebf;rotation=20;" vertex="1" parent="1">
          <mxGeometry x="312" y="565" width="20" height="20" as="geometry" />
        </mxCell>
        <mxCell id="PoLhZCgT39Hz8Oy34b9h-134" value="&lt;font style=&quot;font-size: 18px&quot;&gt;A&lt;/font&gt;" style="text;html=1;align=center;verticalAlign=middle;resizable=0;points=[];autosize=1;rotation=20;" vertex="1" parent="1">
          <mxGeometry x="300" y="584" width="30" height="20" as="geometry" />
        </mxCell>
        <mxCell id="PoLhZCgT39Hz8Oy34b9h-135" value="" style="ellipse;shape=doubleEllipse;whiteSpace=wrap;html=1;rotation=30;" vertex="1" parent="1">
          <mxGeometry x="380" y="630" width="50" height="15" as="geometry" />
        </mxCell>
        <mxCell id="PoLhZCgT39Hz8Oy34b9h-136" value="&lt;font style=&quot;font-size: 18px&quot;&gt;B&lt;/font&gt;" style="text;html=1;align=center;verticalAlign=middle;resizable=0;points=[];autosize=1;rotation=20;" vertex="1" parent="1">
          <mxGeometry x="384" y="645" width="30" height="20" as="geometry" />
        </mxCell>
        <mxCell id="PoLhZCgT39Hz8Oy34b9h-138" value="" style="curved=1;endArrow=classic;html=1;strokeWidth=2;exitX=0.896;exitY=0.7;exitDx=0;exitDy=0;exitPerimeter=0;" edge="1" parent="1" source="PoLhZCgT39Hz8Oy34b9h-64">
          <mxGeometry width="50" height="50" relative="1" as="geometry">
            <mxPoint x="740" y="780" as="sourcePoint" />
            <mxPoint x="680" y="830" as="targetPoint" />
            <Array as="points">
              <mxPoint x="650" y="850" />
            </Array>
          </mxGeometry>
        </mxCell>
      </root>
    </mxGraphModel>
  </diagram>
</mxfile>
